# xmcd CD database file
#
# Track frame offsets:
#	150
#	21587
#	45616
#	67466
#	82068
#	109293
#	131625
#	149770
#	164977
#	190975
#	204831
#	227582
#	257614
#	281801
#
# Disc length: 3933 seconds
#
# Revision: 0
# Processed by: cddbd v1.4PL0 Copyright (c) Steve Scherf et al.
# Submitted via: Feurio! 1.64 - http://www.feurio.com
#
DISCID=e60f5b0e
DTITLE=Bob Dylan - Love and Theft -2001
DYEAR=2001
DGENRE=Blues
TTITLE0=Tweedle Dee and Tweedle Dum
TTITLE1=Mississippi
TTITLE2=Summer Days
TTITLE3=Bye and Bye
TTITLE4=Lonesome Day Blues
TTITLE5=Floater (Too Much To Ask)
TTITLE6=High Water (For Charley Patton)
TTITLE7=Moonlight
TTITLE8=Honest With Me
TTITLE9=Po' Boy
TTITLE10=Cry A While
TTITLE11=Sugar Baby
TTITLE12=I Was Young When I Left Home -1961
TTITLE13=The Times They Are A-changin' (Alternate Version) -1963
EXTD=
EXTT0=
EXTT1=
EXTT2=
EXTT3=
EXTT4=
EXTT5=
EXTT6=
EXTT7=
EXTT8=
EXTT9=
EXTT10=
EXTT11=
EXTT12=
EXTT13=
PLAYORDER=
